<svg width="11.000549" height="6.000732" viewBox="0 0 11.0005 6.00073" fill="none" xmlns="http://www.w3.org/2000/svg" xmlns:xlink="http://www.w3.org/1999/xlink">
	<desc>
			Created with Pixso.
	</desc>
	<defs/>
	<path id="Vector" d="M10.85 0.85L5.85 5.85C5.8 5.9 5.75 5.93 5.69 5.96C5.63 5.98 5.56 6 5.5 6C5.43 6 5.36 5.98 5.3 5.96C5.24 5.93 5.19 5.9 5.14 5.85L0.14 0.85C0.05 0.76 0 0.63 0 0.5C0 0.36 0.05 0.24 0.14 0.14C0.24 0.05 0.36 0 0.5 0C0.63 0 0.76 0.05 0.85 0.14L5.5 4.79L10.14 0.14C10.19 0.1 10.24 0.06 10.3 0.03C10.36 0.01 10.43 0 10.5 0C10.56 0 10.63 0.01 10.69 0.03C10.75 0.06 10.8 0.1 10.85 0.14C10.9 0.19 10.93 0.24 10.96 0.3C10.98 0.36 11 0.43 11 0.5C11 0.56 10.98 0.63 10.96 0.69C10.93 0.75 10.9 0.8 10.85 0.85Z" fill="#000000" fill-opacity="1.000000" fill-rule="nonzero"/>
</svg>
