<svg width="60.114929" height="49.371338" viewBox="0 0 60.1149 49.3713" fill="none" xmlns="http://www.w3.org/2000/svg" xmlns:xlink="http://www.w3.org/1999/xlink">
	<desc>
			Created with Pixso.
	</desc>
	<defs/>
	<path id="Vector" d="M30.05 0L0 49.37L12.39 45.86L15.64 45.91C15.75 45.92 15.85 45.9 15.94 45.86C16.04 45.82 16.12 45.76 16.19 45.68C16.57 45.29 17.29 44.49 17.52 44.02C17.52 44.02 16.91 43.24 16.28 42.98C16.04 42.88 15.34 42.7 14.54 42.53C13.25 42.27 11.71 42.04 11.44 42.24L11.64 37.54C11.72 37.65 11.83 37.75 11.96 37.82C12.6 38.17 13.94 38.79 15.91 39.09C15.91 39.09 16.19 39.12 16.61 39.14C17.08 39.15 17.73 39.13 18.32 38.98C18.07 38.41 17.88 37.82 17.78 37.22C17.77 37.16 17.76 37.09 17.75 37.03C17.75 37.03 12.45 36.18 11.8 35.52L14.77 32.25C14.77 32.25 15.08 29.75 16.88 28.05C16.48 28.9 16.17 29.78 15.96 30.7C17.82 30.55 19.91 30.47 21.91 30.42C26.21 30.32 30.05 30.39 30.05 30.39C30.05 30.39 33.89 30.32 38.2 30.42C40.19 30.47 42.29 30.55 44.15 30.7C43.94 29.79 43.63 28.9 43.23 28.05C45.03 29.75 45.34 32.25 45.34 32.25L48.31 35.52C47.66 36.18 42.36 37.03 42.36 37.03C42.35 37.09 42.34 37.16 42.33 37.22C42.22 37.82 42.04 38.41 41.79 38.98C42.37 39.13 43.02 39.15 43.5 39.14C43.91 39.12 44.19 39.09 44.19 39.09C46.17 38.79 47.51 38.17 48.15 37.82C48.27 37.75 48.38 37.65 48.47 37.54L48.67 42.24C48.4 42.04 46.86 42.27 45.57 42.53C44.76 42.7 44.06 42.88 43.82 42.98C43.19 43.24 42.59 44.02 42.59 44.02C42.81 44.49 43.54 45.29 43.91 45.68C43.98 45.76 44.07 45.82 44.16 45.86C44.26 45.9 44.36 45.92 44.46 45.91L47.71 45.86L60.11 49.37L30.05 0ZM26.22 23.34L30.05 17.05L33.87 23.32C31.18 23.26 28.05 23.3 26.22 23.34Z" fill="#EB1C24" fill-opacity="1.000000" fill-rule="nonzero"/>
	<path id="Vector" d="M30.05 36.04C36.22 36.04 39.59 36.55 40.55 36.72C40.63 36.74 40.7 36.78 40.75 36.85C40.8 36.91 40.83 37 40.82 37.08C40.72 38.39 40.02 39.46 39.67 39.91C39.55 40.07 39.38 40.19 39.19 40.24C36.03 41.17 30.05 41.75 30.05 41.75C30.05 41.75 24.07 41.17 20.91 40.24C20.71 40.19 20.54 40.07 20.42 39.91C20.08 39.45 19.38 38.39 19.27 37.08C19.27 37 19.29 36.91 19.34 36.85C19.39 36.78 19.47 36.74 19.55 36.72C20.51 36.55 23.87 36.04 30.05 36.04Z" fill="#EB1C24" fill-opacity="1.000000" fill-rule="nonzero"/>
	<path id="Vector" d="M17.64 46.74C18.28 46.42 19.39 45.02 19.86 44.4C19.93 44.3 20.02 44.23 20.12 44.18C20.23 44.13 20.34 44.1 20.46 44.1C21.62 44.14 25.37 44.23 30.05 44.23C34.73 44.23 38.48 44.14 39.64 44.1C39.76 44.1 39.87 44.13 39.98 44.18C40.08 44.23 40.17 44.3 40.24 44.4C40.71 45.02 41.82 46.42 42.46 46.74C43.29 47.15 48.36 46.53 48.36 46.53C48.44 47.04 48.08 47.2 48.08 47.2C47.09 47.84 30.05 47.69 30.05 47.69C30.05 47.69 13.01 47.84 12.02 47.2C12.02 47.2 11.66 47.04 11.74 46.53C11.74 46.53 16.81 47.15 17.64 46.74Z" fill="#EB1C24" fill-opacity="1.000000" fill-rule="nonzero"/>
</svg>
