<svg width="16" height="18" viewBox="0 0 16 18" fill="none" xmlns="http://www.w3.org/2000/svg">
<g clip-path="url(#clip0_1_123)">
<path fill-rule="evenodd" clip-rule="evenodd" d="M3.3315 12.8798C3.0475 12.5208 2.7025 11.7868 2.0885 10.8958C1.7405 10.3918 0.877496 9.44283 0.620496 8.96083C0.397496 8.53483 0.421496 8.34383 0.474496 7.99083C0.568496 7.36283 1.2125 6.87383 1.8995 6.93983C2.4185 6.98883 2.8585 7.33183 3.2545 7.65583C3.4935 7.85083 3.7875 8.22983 3.9645 8.44383C4.1275 8.63983 4.1675 8.72083 4.3415 8.95283C4.5715 9.25983 4.6435 9.41183 4.5555 9.07383C4.4845 8.57783 4.3685 7.73083 4.2005 6.98183C4.0725 6.41383 4.0415 6.32483 3.9195 5.88883C3.7905 5.42483 3.7245 5.09983 3.6035 4.60783C3.5195 4.25983 3.3685 3.54883 3.3275 3.14883C3.2705 2.60183 3.2405 1.70983 3.5915 1.29983C3.8665 0.978827 4.4975 0.881827 4.8885 1.07983C5.4005 1.33883 5.6915 2.08283 5.8245 2.37983C6.0635 2.91383 6.2115 3.53083 6.3405 4.34083C6.5045 5.37183 6.8065 6.80283 6.8165 7.10383C6.8405 6.73483 6.7485 5.95783 6.8125 5.60383C6.8705 5.28283 7.1405 4.90983 7.4785 4.80883C7.7645 4.72383 8.0995 4.69283 8.3945 4.75383C8.7075 4.81783 9.03749 5.04183 9.16049 5.25283C9.5225 5.87683 9.5295 7.15183 9.5445 7.08383C9.6305 6.70783 9.61549 5.85483 9.8285 5.49983C9.9685 5.26583 10.3255 5.05483 10.5155 5.02083C10.8095 4.96883 11.1705 4.95283 11.4795 5.01283C11.7285 5.06183 12.0655 5.35783 12.1565 5.49983C12.3745 5.84383 12.4985 6.81683 12.5355 7.15783C12.5505 7.29883 12.6095 6.76583 12.8285 6.42183C13.2345 5.78283 14.6715 5.65883 14.7265 7.06083C14.7515 7.71483 14.7465 7.68483 14.7465 8.12483C14.7465 8.64183 14.7345 8.95283 14.7065 9.32683C14.6755 9.72683 14.5895 10.6308 14.4645 11.0688C14.3785 11.3698 14.0935 12.0468 13.8125 12.4528C13.8125 12.4528 12.7385 13.7028 12.6215 14.2658C12.5035 14.8278 12.5425 14.8318 12.5195 15.2308C12.4965 15.6288 12.6405 16.1528 12.6405 16.1528C12.6405 16.1528 11.8385 16.2568 11.4065 16.1878C11.0155 16.1248 10.5315 15.3468 10.4065 15.1088C10.2345 14.7808 9.86749 14.8438 9.72449 15.0858C9.49949 15.4688 9.0155 16.1558 8.6735 16.1988C8.0055 16.2828 6.6195 16.2298 5.5345 16.2188C5.5345 16.2188 5.7195 15.2078 5.3075 14.8608C5.0025 14.6018 4.4775 14.0768 4.1635 13.8008L3.3315 12.8798Z" fill="white"/>
<path fill-rule="evenodd" clip-rule="evenodd" d="M3.3315 12.8798C3.0475 12.5208 2.7025 11.7868 2.0885 10.8958C1.7405 10.3918 0.877496 9.44283 0.620496 8.96083C0.397496 8.53483 0.421496 8.34383 0.474496 7.99083C0.568496 7.36283 1.2125 6.87383 1.8995 6.93983C2.4185 6.98883 2.8585 7.33183 3.2545 7.65583C3.4935 7.85083 3.7875 8.22983 3.9645 8.44383C4.1275 8.63983 4.1675 8.72083 4.3415 8.95283C4.5715 9.25983 4.6435 9.41183 4.5555 9.07383C4.4845 8.57783 4.3685 7.73083 4.2005 6.98183C4.0725 6.41383 4.0415 6.32483 3.9195 5.88883C3.7905 5.42483 3.7245 5.09983 3.6035 4.60783C3.5195 4.25983 3.3685 3.54883 3.3275 3.14883C3.2705 2.60183 3.2405 1.70983 3.5915 1.29983C3.8665 0.978827 4.4975 0.881827 4.8885 1.07983C5.4005 1.33883 5.6915 2.08283 5.8245 2.37983C6.0635 2.91383 6.2115 3.53083 6.3405 4.34083C6.5045 5.37183 6.8065 6.80283 6.8165 7.10383C6.8405 6.73483 6.7485 5.95783 6.8125 5.60383C6.8705 5.28283 7.1405 4.90983 7.4785 4.80883C7.7645 4.72383 8.0995 4.69283 8.3945 4.75383C8.7075 4.81783 9.03749 5.04183 9.16049 5.25283C9.52249 5.87683 9.5295 7.15183 9.5445 7.08383C9.6305 6.70783 9.6155 5.85483 9.8285 5.49983C9.9685 5.26583 10.3255 5.05483 10.5155 5.02083C10.8095 4.96883 11.1705 4.95283 11.4795 5.01283C11.7285 5.06183 12.0655 5.35783 12.1565 5.49983C12.3745 5.84383 12.4985 6.81683 12.5355 7.15783C12.5505 7.29883 12.6095 6.76583 12.8285 6.42183C13.2345 5.78283 14.6715 5.65883 14.7265 7.06083C14.7515 7.71483 14.7465 7.68483 14.7465 8.12483C14.7465 8.64183 14.7345 8.95283 14.7065 9.32683C14.6755 9.72683 14.5895 10.6308 14.4645 11.0688C14.3785 11.3698 14.0935 12.0468 13.8125 12.4528C13.8125 12.4528 12.7385 13.7028 12.6215 14.2658C12.5035 14.8278 12.5425 14.8318 12.5195 15.2308C12.4965 15.6288 12.6405 16.1528 12.6405 16.1528C12.6405 16.1528 11.8385 16.2568 11.4065 16.1878C11.0155 16.1248 10.5315 15.3468 10.4065 15.1088C10.2345 14.7808 9.86749 14.8438 9.72449 15.0858C9.49949 15.4688 9.0155 16.1558 8.6735 16.1988C8.0055 16.2828 6.6195 16.2298 5.5345 16.2188C5.5345 16.2188 5.7195 15.2078 5.3075 14.8608C5.0025 14.6018 4.4775 14.0768 4.1635 13.8008L3.3315 12.8798Z" stroke="black" stroke-width="0.75" stroke-linecap="round" stroke-linejoin="round"/>
<path d="M11.5664 13.2344V9.77539" stroke="black" stroke-width="0.75" stroke-linecap="round"/>
<path d="M9.55079 13.2459L9.53479 9.77295" stroke="black" stroke-width="0.75" stroke-linecap="round"/>
<path d="M7.55469 9.80469L7.57569 13.2307" stroke="black" stroke-width="0.75" stroke-linecap="round"/>
</g>
<defs>
<clipPath id="clip0_1_123">
<rect width="16" height="17" fill="white" transform="translate(0 0.5)"/>
</clipPath>
</defs>
</svg>
